<svg xmlns="http://www.w3.org/2000/svg" viewBox="0 0 120 120" fill="none"><rect width="120" height="120" rx="24" fill="#1a1a2e"/><line x1="30" y1="22" x2="30" y2="100" stroke="#e0e0e0" stroke-width="4" stroke-linecap="round"/><circle cx="30" cy="100" r="4" fill="#c0c0c0"/><path d="M32 22 C50 18, 70 28, 95 24 C95 24, 98 42, 95 58 C70 62, 50 52, 32 56 Z" fill="white" stroke="#333" stroke-width="1"/><clipPath id="flagClip"><path d="M32 22 C50 18, 70 28, 95 24 C95 24, 98 42, 95 58 C70 62, 50 52, 32 56 Z"/></clipPath><g clip-path="url(#flagClip)"><rect x="32" y="20" width="8" height="9" fill="#1a1a2e"/><rect x="40" y="20" width="8" height="9" fill="white"/><rect x="48" y="20" width="8" height="9" fill="#1a1a2e"/><rect x="56" y="20" width="8" height="9" fill="white"/><rect x="64" y="20" width="8" height="9" fill="#1a1a2e"/><rect x="72" y="20" width="8" height="9" fill="white"/><rect x="80" y="20" width="8" height="9" fill="#1a1a2e"/><rect x="88" y="20" width="8" height="9" fill="white"/><rect x="32" y="29" width="8" height="9" fill="white"/><rect x="40" y="29" width="8" height="9" fill="#1a1a2e"/><rect x="48" y="29" width="8" height="9" fill="white"/><rect x="56" y="29" width="8" height="9" fill="#1a1a2e"/><rect x="64" y="29" width="8" height="9" fill="white"/><rect x="72" y="29" width="8" height="9" fill="#1a1a2e"/><rect x="80" y="29" width="8" height="9" fill="white"/><rect x="88" y="29" width="8" height="9" fill="#1a1a2e"/><rect x="32" y="38" width="8" height="9" fill="#1a1a2e"/><rect x="40" y="38" width="8" height="9" fill="white"/><rect x="48" y="38" width="8" height="9" fill="#1a1a2e"/><rect x="56" y="38" width="8" height="9" fill="white"/><rect x="64" y="38" width="8" height="9" fill="#1a1a2e"/><rect x="72" y="38" width="8" height="9" fill="white"/><rect x="80" y="38" width="8" height="9" fill="#1a1a2e"/><rect x="88" y="38" width="8" height="9" fill="white"/><rect x="32" y="47" width="8" height="9" fill="white"/><rect x="40" y="47" width="8" height="9" fill="#1a1a2e"/><rect x="48" y="47" width="8" height="9" fill="white"/><rect x="56" y="47" width="8" height="9" fill="#1a1a2e"/><rect x="64" y="47" width="8" height="9" fill="white"/><rect x="72" y="47" width="8" height="9" fill="#1a1a2e"/><rect x="80" y="47" width="8" height="9" fill="white"/><rect x="88" y="47" width="8" height="9" fill="#1a1a2e"/></g></svg>